<?xml version="1.0" encoding="UTF-8" standalone="no"?>
<!DOCTYPE svg PUBLIC "-//W3C//DTD SVG 1.1//EN"
 "http://www.w3.org/Graphics/SVG/1.1/DTD/svg11.dtd">
<!-- Generated by graphviz version 2.36.0 (20140111.2315)
 -->
<!-- Title: %3 Pages: 1 -->
<svg width="1313pt" height="476pt"
 viewBox="0.00 0.00 1313.00 476.08" xmlns="http://www.w3.org/2000/svg" xmlns:xlink="http://www.w3.org/1999/xlink">
<g id="graph0" class="graph" transform="scale(1 1) rotate(0) translate(4 472.083)">
<title>%3</title>
<polygon fill="white" stroke="none" points="-4,4 -4,-472.083 1309,-472.083 1309,4 -4,4"/>
<!-- cdbu&#45;sol&#45;vcf&#45;5100&#45;48s&#45;05 -->
<g id="node1" class="node"><title>cdbu&#45;sol&#45;vcf&#45;5100&#45;48s&#45;05</title>
<path fill="none" stroke="black" d="M188.5,-205.083C188.5,-205.083 49.5,-205.083 49.5,-205.083 43.5,-205.083 37.5,-199.083 37.5,-193.083 37.5,-193.083 37.5,-109.083 37.5,-109.083 37.5,-103.083 43.5,-97.0833 49.5,-97.0833 49.5,-97.0833 188.5,-97.0833 188.5,-97.0833 194.5,-97.0833 200.5,-103.083 200.5,-109.083 200.5,-109.083 200.5,-193.083 200.5,-193.083 200.5,-199.083 194.5,-205.083 188.5,-205.083"/>
<text text-anchor="middle" x="119" y="-147.383" font-family="times" font-size="14.00" fill="purple">cdbu&#45;sol&#45;vcf&#45;5100&#45;48s&#45;05</text>
</g>
<!-- cdbu&#45;sol&#45;vcf&#45;5100&#45;48s&#45;06 -->
<g id="node2" class="node"><title>cdbu&#45;sol&#45;vcf&#45;5100&#45;48s&#45;06</title>
<path fill="none" stroke="black" d="M464.5,-216.083C464.5,-216.083 325.5,-216.083 325.5,-216.083 319.5,-216.083 313.5,-210.083 313.5,-204.083 313.5,-204.083 313.5,-98.0833 313.5,-98.0833 313.5,-92.0833 319.5,-86.0833 325.5,-86.0833 325.5,-86.0833 464.5,-86.0833 464.5,-86.0833 470.5,-86.0833 476.5,-92.0833 476.5,-98.0833 476.5,-98.0833 476.5,-204.083 476.5,-204.083 476.5,-210.083 470.5,-216.083 464.5,-216.083"/>
<text text-anchor="middle" x="395" y="-147.383" font-family="times" font-size="14.00" fill="purple">cdbu&#45;sol&#45;vcf&#45;5100&#45;48s&#45;06</text>
</g>
<!-- cdbu&#45;sol&#45;vcf&#45;5100&#45;48s&#45;05&#45;&gt;cdbu&#45;sol&#45;vcf&#45;5100&#45;48s&#45;06 -->
<g id="edge1" class="edge"><title>cdbu&#45;sol&#45;vcf&#45;5100&#45;48s&#45;05&#45;&gt;cdbu&#45;sol&#45;vcf&#45;5100&#45;48s&#45;06</title>
<path fill="none" stroke="blue" stroke-width="2" d="M210.689,-151.083C210.689,-151.083 303.044,-151.083 303.044,-151.083"/>
<polygon fill="blue" stroke="blue" stroke-width="2" points="303.044,-154.583 313.044,-151.083 303.044,-147.583 303.044,-154.583"/>
<polygon fill="blue" stroke="blue" stroke-width="2" points="210.689,-147.583 200.689,-151.083 210.689,-154.583 210.689,-147.583"/>
<text text-anchor="middle" x="241.689" y="-154.883" font-family="Times,serif" font-size="14.00"> &#160;&#160;&#160;xe&#45;0/0/29 &#160;&#160;&#160;</text>
<text text-anchor="middle" x="272.044" y="-139.883" font-family="Times,serif" font-size="14.00"> &#160;&#160;&#160;xe&#45;0/0/29 &#160;&#160;&#160;</text>
</g>
<!-- qfx5100&#45;11 -->
<g id="node3" class="node"><title>qfx5100&#45;11</title>
<path fill="none" stroke="black" d="M700,-468.583C700,-468.583 642,-468.583 642,-468.583 636,-468.583 630,-462.583 630,-456.583 630,-456.583 630,-437.583 630,-437.583 630,-431.583 636,-425.583 642,-425.583 642,-425.583 700,-425.583 700,-425.583 706,-425.583 712,-431.583 712,-437.583 712,-437.583 712,-456.583 712,-456.583 712,-462.583 706,-468.583 700,-468.583"/>
<text text-anchor="middle" x="671" y="-443.383" font-family="times" font-size="14.00" fill="red">qfx5100&#45;11</text>
</g>
<!-- cdbu&#45;sol&#45;vcf&#45;5100&#45;48s&#45;05&#45;&gt;qfx5100&#45;11 -->
<g id="edge2" class="edge"><title>cdbu&#45;sol&#45;vcf&#45;5100&#45;48s&#45;05&#45;&gt;qfx5100&#45;11</title>
<path fill="none" stroke="blue" stroke-width="2" d="M79,-215.269C79,-215.269 79,-454.167 79,-454.167 79,-454.167 619.842,-454.167 619.842,-454.167"/>
<polygon fill="blue" stroke="blue" stroke-width="2" points="82.5001,-215.269 79,-205.269 75.5001,-215.269 82.5001,-215.269"/>
<polygon fill="blue" stroke="blue" stroke-width="2" points="619.842,-457.667 629.842,-454.167 619.842,-450.667 619.842,-457.667"/>
<text text-anchor="middle" x="593.842" y="-442.967" font-family="Times,serif" font-size="14.00"> &#160;&#160;&#160;et&#45;0/0/4 &#160;&#160;&#160;</text>
<text text-anchor="middle" x="39.5" y="-209.069" font-family="Times,serif" font-size="14.00"> &#160;&#160;&#160;et&#45;0/0/51 &#160;&#160;&#160;</text>
</g>
<!-- qfx5100&#45;10 -->
<g id="node4" class="node"><title>qfx5100&#45;10</title>
<path fill="none" stroke="black" d="M700,-43.5833C700,-43.5833 642,-43.5833 642,-43.5833 636,-43.5833 630,-37.5833 630,-31.5833 630,-31.5833 630,-12.5833 630,-12.5833 630,-6.58333 636,-0.583333 642,-0.583333 642,-0.583333 700,-0.583333 700,-0.583333 706,-0.583333 712,-6.58333 712,-12.5833 712,-12.5833 712,-31.5833 712,-31.5833 712,-37.5833 706,-43.5833 700,-43.5833"/>
<text text-anchor="middle" x="671" y="-18.3833" font-family="times" font-size="14.00" fill="red">qfx5100&#45;10</text>
</g>
<!-- cdbu&#45;sol&#45;vcf&#45;5100&#45;48s&#45;05&#45;&gt;qfx5100&#45;10 -->
<g id="edge3" class="edge"><title>cdbu&#45;sol&#45;vcf&#45;5100&#45;48s&#45;05&#45;&gt;qfx5100&#45;10</title>
<path fill="none" stroke="blue" stroke-width="2" d="M119,-86.9086C119,-86.9086 119,-15 119,-15 119,-15 619.961,-15 619.961,-15"/>
<polygon fill="blue" stroke="blue" stroke-width="2" points="115.5,-86.9085 119,-96.9086 122.5,-86.9086 115.5,-86.9085"/>
<polygon fill="blue" stroke="blue" stroke-width="2" points="619.961,-18.5001 629.961,-15 619.961,-11.5001 619.961,-18.5001"/>
<text text-anchor="middle" x="593.961" y="-3.8" font-family="Times,serif" font-size="14.00"> &#160;&#160;&#160;et&#45;0/0/4 &#160;&#160;&#160;</text>
<text text-anchor="middle" x="79.5" y="-85.7086" font-family="Times,serif" font-size="14.00"> &#160;&#160;&#160;et&#45;0/0/50 &#160;&#160;&#160;</text>
</g>
<!-- cdbu&#45;sol&#45;vcf&#45;5100&#45;24q&#45;02 -->
<g id="node5" class="node"><title>cdbu&#45;sol&#45;vcf&#45;5100&#45;24q&#45;02</title>
<path fill="none" stroke="black" d="M1017,-226.583C1017,-226.583 877,-226.583 877,-226.583 871,-226.583 865,-220.583 865,-214.583 865,-214.583 865,-87.5833 865,-87.5833 865,-81.5833 871,-75.5833 877,-75.5833 877,-75.5833 1017,-75.5833 1017,-75.5833 1023,-75.5833 1029,-81.5833 1029,-87.5833 1029,-87.5833 1029,-214.583 1029,-214.583 1029,-220.583 1023,-226.583 1017,-226.583"/>
<text text-anchor="middle" x="947" y="-147.383" font-family="times" font-size="14.00" fill="purple">cdbu&#45;sol&#45;vcf&#45;5100&#45;24q&#45;02</text>
</g>
<!-- cdbu&#45;sol&#45;vcf&#45;5100&#45;48s&#45;05&#45;&gt;cdbu&#45;sol&#45;vcf&#45;5100&#45;24q&#45;02 -->
<g id="edge4" class="edge"><title>cdbu&#45;sol&#45;vcf&#45;5100&#45;48s&#45;05&#45;&gt;cdbu&#45;sol&#45;vcf&#45;5100&#45;24q&#45;02</title>
<path fill="none" stroke="blue" stroke-width="2" d="M160,-215.324C160,-215.324 160,-219.5 160,-219.5 160,-219.5 854.635,-219.5 854.635,-219.5"/>
<polygon fill="blue" stroke="blue" stroke-width="2" points="163.5,-215.324 160,-205.324 156.5,-215.324 163.5,-215.324"/>
<polygon fill="blue" stroke="blue" stroke-width="2" points="854.635,-223 864.635,-219.5 854.635,-216 854.635,-223"/>
<text text-anchor="middle" x="828.635" y="-208.3" font-family="Times,serif" font-size="14.00"> &#160;&#160;&#160;et&#45;0/0/4 &#160;&#160;&#160;</text>
<text text-anchor="middle" x="199.5" y="-209.124" font-family="Times,serif" font-size="14.00"> &#160;&#160;&#160;et&#45;0/0/49 &#160;&#160;&#160;</text>
</g>
<!-- cdbu&#45;sol&#45;vcf&#45;5100&#45;24q&#45;01 -->
<g id="node6" class="node"><title>cdbu&#45;sol&#45;vcf&#45;5100&#45;24q&#45;01</title>
<path fill="none" stroke="black" d="M741,-371.083C741,-371.083 601,-371.083 601,-371.083 595,-371.083 589,-365.083 589,-359.083 589,-359.083 589,-275.083 589,-275.083 589,-269.083 595,-263.083 601,-263.083 601,-263.083 741,-263.083 741,-263.083 747,-263.083 753,-269.083 753,-275.083 753,-275.083 753,-359.083 753,-359.083 753,-365.083 747,-371.083 741,-371.083"/>
<text text-anchor="middle" x="671" y="-313.383" font-family="times" font-size="14.00" fill="purple">cdbu&#45;sol&#45;vcf&#45;5100&#45;24q&#45;01</text>
</g>
<!-- cdbu&#45;sol&#45;vcf&#45;5100&#45;48s&#45;05&#45;&gt;cdbu&#45;sol&#45;vcf&#45;5100&#45;24q&#45;01 -->
<g id="edge5" class="edge"><title>cdbu&#45;sol&#45;vcf&#45;5100&#45;48s&#45;05&#45;&gt;cdbu&#45;sol&#45;vcf&#45;5100&#45;24q&#45;01</title>
<path fill="none" stroke="blue" stroke-width="2" d="M119,-215.438C119,-215.438 119,-317.083 119,-317.083 119,-317.083 578.956,-317.083 578.956,-317.083"/>
<polygon fill="blue" stroke="blue" stroke-width="2" points="122.5,-215.438 119,-205.438 115.5,-215.438 122.5,-215.438"/>
<polygon fill="blue" stroke="blue" stroke-width="2" points="578.956,-320.583 588.956,-317.083 578.956,-313.583 578.956,-320.583"/>
<text text-anchor="middle" x="552.956" y="-305.883" font-family="Times,serif" font-size="14.00"> &#160;&#160;&#160;et&#45;0/0/4 &#160;&#160;&#160;</text>
<text text-anchor="middle" x="158.5" y="-209.238" font-family="Times,serif" font-size="14.00"> &#160;&#160;&#160;et&#45;0/0/48 &#160;&#160;&#160;</text>
</g>
<!-- cdbu&#45;sol&#45;vcf&#45;5100&#45;48s&#45;06&#45;&gt;qfx5100&#45;11 -->
<g id="edge6" class="edge"><title>cdbu&#45;sol&#45;vcf&#45;5100&#45;48s&#45;06&#45;&gt;qfx5100&#45;11</title>
<path fill="none" stroke="blue" stroke-width="2" d="M395,-226.282C395,-226.282 395,-440 395,-440 395,-440 619.978,-440 619.978,-440"/>
<polygon fill="blue" stroke="blue" stroke-width="2" points="398.5,-226.282 395,-216.282 391.5,-226.282 398.5,-226.282"/>
<polygon fill="blue" stroke="blue" stroke-width="2" points="619.978,-443.5 629.978,-440 619.978,-436.5 619.978,-443.5"/>
<text text-anchor="middle" x="593.978" y="-428.8" font-family="Times,serif" font-size="14.00"> &#160;&#160;&#160;et&#45;0/0/5 &#160;&#160;&#160;</text>
<text text-anchor="middle" x="355.5" y="-220.082" font-family="Times,serif" font-size="14.00"> &#160;&#160;&#160;et&#45;0/0/51 &#160;&#160;&#160;</text>
</g>
<!-- cdbu&#45;sol&#45;vcf&#45;5100&#45;48s&#45;06&#45;&gt;qfx5100&#45;10 -->
<g id="edge7" class="edge"><title>cdbu&#45;sol&#45;vcf&#45;5100&#45;48s&#45;06&#45;&gt;qfx5100&#45;10</title>
<path fill="none" stroke="blue" stroke-width="2" d="M395,-75.842C395,-75.842 395,-29.1667 395,-29.1667 395,-29.1667 619.978,-29.1667 619.978,-29.1667"/>
<polygon fill="blue" stroke="blue" stroke-width="2" points="391.5,-75.842 395,-85.842 398.5,-75.842 391.5,-75.842"/>
<polygon fill="blue" stroke="blue" stroke-width="2" points="619.978,-32.6668 629.978,-29.1667 619.978,-25.6668 619.978,-32.6668"/>
<text text-anchor="middle" x="593.978" y="-32.9667" font-family="Times,serif" font-size="14.00"> &#160;&#160;&#160;et&#45;0/0/5 &#160;&#160;&#160;</text>
<text text-anchor="middle" x="355.5" y="-74.642" font-family="Times,serif" font-size="14.00"> &#160;&#160;&#160;et&#45;0/0/50 &#160;&#160;&#160;</text>
</g>
<!-- cdbu&#45;sol&#45;vcf&#45;5100&#45;48s&#45;06&#45;&gt;cdbu&#45;sol&#45;vcf&#45;5100&#45;24q&#45;02 -->
<g id="edge8" class="edge"><title>cdbu&#45;sol&#45;vcf&#45;5100&#45;48s&#45;06&#45;&gt;cdbu&#45;sol&#45;vcf&#45;5100&#45;24q&#45;02</title>
<path fill="none" stroke="blue" stroke-width="2" d="M486.747,-151.083C486.747,-151.083 854.861,-151.083 854.861,-151.083"/>
<polygon fill="blue" stroke="blue" stroke-width="2" points="854.861,-154.583 864.861,-151.083 854.861,-147.583 854.861,-154.583"/>
<polygon fill="blue" stroke="blue" stroke-width="2" points="486.747,-147.583 476.747,-151.083 486.747,-154.583 486.747,-147.583"/>
<text text-anchor="middle" x="512.747" y="-139.883" font-family="Times,serif" font-size="14.00"> &#160;&#160;&#160;et&#45;0/0/5 &#160;&#160;&#160;</text>
<text text-anchor="middle" x="825.361" y="-139.883" font-family="Times,serif" font-size="14.00"> &#160;&#160;&#160;et&#45;0/0/49 &#160;&#160;&#160;</text>
</g>
<!-- cdbu&#45;sol&#45;vcf&#45;5100&#45;48s&#45;06&#45;&gt;cdbu&#45;sol&#45;vcf&#45;5100&#45;24q&#45;01 -->
<g id="edge9" class="edge"><title>cdbu&#45;sol&#45;vcf&#45;5100&#45;48s&#45;06&#45;&gt;cdbu&#45;sol&#45;vcf&#45;5100&#45;24q&#45;01</title>
<path fill="none" stroke="blue" stroke-width="2" d="M486.589,-183.583C486.589,-183.583 610,-183.583 610,-183.583 610,-183.583 610,-252.784 610,-252.784"/>
<polygon fill="blue" stroke="blue" stroke-width="2" points="486.589,-180.083 476.589,-183.583 486.589,-187.083 486.589,-180.083"/>
<polygon fill="blue" stroke="blue" stroke-width="2" points="606.5,-252.784 610,-262.784 613.5,-252.784 606.5,-252.784"/>
<text text-anchor="middle" x="574" y="-251.584" font-family="Times,serif" font-size="14.00"> &#160;&#160;&#160;et&#45;0/0/5 &#160;&#160;&#160;</text>
<text text-anchor="middle" x="516.089" y="-172.383" font-family="Times,serif" font-size="14.00"> &#160;&#160;&#160;et&#45;0/0/48 &#160;&#160;&#160;</text>
</g>
<!-- cdbu&#45;sol&#45;vcf&#45;5100&#45;24q&#45;02&#45;&gt;cdbu&#45;sol&#45;vcf&#45;5100&#45;48s&#45;06 -->
<g id="edge10" class="edge"><title>cdbu&#45;sol&#45;vcf&#45;5100&#45;24q&#45;02&#45;&gt;cdbu&#45;sol&#45;vcf&#45;5100&#45;48s&#45;06</title>
<path fill="none" stroke="blue" stroke-width="2" d="M854.956,-118.583C854.956,-118.583 486.593,-118.583 486.593,-118.583"/>
<polygon fill="blue" stroke="blue" stroke-width="2" points="486.593,-115.083 476.593,-118.583 486.593,-122.083 486.593,-115.083"/>
<polygon fill="blue" stroke="blue" stroke-width="2" points="854.956,-122.083 864.956,-118.583 854.956,-115.083 854.956,-122.083"/>
<text text-anchor="middle" x="791.956" y="-107.383" font-family="Times,serif" font-size="14.00"> &#160;&#160;&#160;to R11 &#45; R23_R11_1 &#160;&#160;&#160;</text>
<text text-anchor="middle" x="512.593" y="-107.383" font-family="Times,serif" font-size="14.00"> &#160;&#160;&#160;et&#45;0/0/5 &#160;&#160;&#160;</text>
</g>
<!-- cdbu&#45;sol&#45;vcf&#45;5100&#45;48s&#45;04 -->
<g id="node7" class="node"><title>cdbu&#45;sol&#45;vcf&#45;5100&#45;48s&#45;04</title>
<path fill="none" stroke="black" d="M1292.5,-226.583C1292.5,-226.583 1153.5,-226.583 1153.5,-226.583 1147.5,-226.583 1141.5,-220.583 1141.5,-214.583 1141.5,-214.583 1141.5,-195.583 1141.5,-195.583 1141.5,-189.583 1147.5,-183.583 1153.5,-183.583 1153.5,-183.583 1292.5,-183.583 1292.5,-183.583 1298.5,-183.583 1304.5,-189.583 1304.5,-195.583 1304.5,-195.583 1304.5,-214.583 1304.5,-214.583 1304.5,-220.583 1298.5,-226.583 1292.5,-226.583"/>
<text text-anchor="middle" x="1223" y="-201.383" font-family="times" font-size="14.00" fill="red">cdbu&#45;sol&#45;vcf&#45;5100&#45;48s&#45;04</text>
</g>
<!-- cdbu&#45;sol&#45;vcf&#45;5100&#45;24q&#45;02&#45;&gt;cdbu&#45;sol&#45;vcf&#45;5100&#45;48s&#45;04 -->
<g id="edge11" class="edge"><title>cdbu&#45;sol&#45;vcf&#45;5100&#45;24q&#45;02&#45;&gt;cdbu&#45;sol&#45;vcf&#45;5100&#45;48s&#45;04</title>
<path fill="none" stroke="blue" stroke-width="2" d="M1039.06,-205.083C1039.06,-205.083 1131.25,-205.083 1131.25,-205.083"/>
<polygon fill="blue" stroke="blue" stroke-width="2" points="1131.25,-208.583 1141.25,-205.083 1131.25,-201.583 1131.25,-208.583"/>
<polygon fill="blue" stroke="blue" stroke-width="2" points="1039.06,-201.583 1029.06,-205.083 1039.06,-208.583 1039.06,-201.583"/>
<text text-anchor="middle" x="1068.56" y="-208.883" font-family="Times,serif" font-size="14.00"> &#160;&#160;&#160;et&#45;0/0/49 &#160;&#160;&#160;</text>
<text text-anchor="middle" x="1105.25" y="-193.883" font-family="Times,serif" font-size="14.00"> &#160;&#160;&#160;et&#45;0/0/3 &#160;&#160;&#160;</text>
</g>
<!-- cdbu&#45;sol&#45;vcf&#45;5100&#45;48s&#45;02 -->
<g id="node8" class="node"><title>cdbu&#45;sol&#45;vcf&#45;5100&#45;48s&#45;02</title>
<path fill="none" stroke="black" d="M1292.5,-376.583C1292.5,-376.583 1153.5,-376.583 1153.5,-376.583 1147.5,-376.583 1141.5,-370.583 1141.5,-364.583 1141.5,-364.583 1141.5,-345.583 1141.5,-345.583 1141.5,-339.583 1147.5,-333.583 1153.5,-333.583 1153.5,-333.583 1292.5,-333.583 1292.5,-333.583 1298.5,-333.583 1304.5,-339.583 1304.5,-345.583 1304.5,-345.583 1304.5,-364.583 1304.5,-364.583 1304.5,-370.583 1298.5,-376.583 1292.5,-376.583"/>
<text text-anchor="middle" x="1223" y="-351.383" font-family="times" font-size="14.00" fill="red">cdbu&#45;sol&#45;vcf&#45;5100&#45;48s&#45;02</text>
</g>
<!-- cdbu&#45;sol&#45;vcf&#45;5100&#45;24q&#45;02&#45;&gt;cdbu&#45;sol&#45;vcf&#45;5100&#45;48s&#45;02 -->
<g id="edge12" class="edge"><title>cdbu&#45;sol&#45;vcf&#45;5100&#45;24q&#45;02&#45;&gt;cdbu&#45;sol&#45;vcf&#45;5100&#45;48s&#45;02</title>
<path fill="none" stroke="blue" stroke-width="2" d="M947,-236.54C947,-236.54 947,-346.25 947,-346.25 947,-346.25 1131.31,-346.25 1131.31,-346.25"/>
<polygon fill="blue" stroke="blue" stroke-width="2" points="950.5,-236.54 947,-226.54 943.5,-236.54 950.5,-236.54"/>
<polygon fill="blue" stroke="blue" stroke-width="2" points="1131.31,-349.75 1141.31,-346.25 1131.31,-342.75 1131.31,-349.75"/>
<text text-anchor="middle" x="1101.81" y="-335.05" font-family="Times,serif" font-size="14.00"> &#160;&#160;&#160;et&#45;0/0/49 &#160;&#160;&#160;</text>
<text text-anchor="middle" x="911" y="-230.34" font-family="Times,serif" font-size="14.00"> &#160;&#160;&#160;et&#45;0/0/1 &#160;&#160;&#160;</text>
</g>
<!-- cdbu&#45;sol&#45;vcf&#45;5100&#45;48s&#45;01 -->
<g id="node9" class="node"><title>cdbu&#45;sol&#45;vcf&#45;5100&#45;48s&#45;01</title>
<path fill="none" stroke="black" d="M1296.83,-106.583C1296.83,-106.583 1149.17,-106.583 1149.17,-106.583 1145.33,-106.583 1141.5,-102.75 1141.5,-98.9167 1141.5,-98.9167 1141.5,-91.25 1141.5,-91.25 1141.5,-87.4167 1145.33,-83.5833 1149.17,-83.5833 1149.17,-83.5833 1296.83,-83.5833 1296.83,-83.5833 1300.67,-83.5833 1304.5,-87.4167 1304.5,-91.25 1304.5,-91.25 1304.5,-98.9167 1304.5,-98.9167 1304.5,-102.75 1300.67,-106.583 1296.83,-106.583"/>
<text text-anchor="middle" x="1223" y="-91.3833" font-family="times" font-size="14.00" fill="red">cdbu&#45;sol&#45;vcf&#45;5100&#45;48s&#45;01</text>
</g>
<!-- cdbu&#45;sol&#45;vcf&#45;5100&#45;24q&#45;02&#45;&gt;cdbu&#45;sol&#45;vcf&#45;5100&#45;48s&#45;01 -->
<g id="edge13" class="edge"><title>cdbu&#45;sol&#45;vcf&#45;5100&#45;24q&#45;02&#45;&gt;cdbu&#45;sol&#45;vcf&#45;5100&#45;48s&#45;01</title>
<path fill="none" stroke="blue" stroke-width="2" d="M1039.06,-95.0833C1039.06,-95.0833 1131.25,-95.0833 1131.25,-95.0833"/>
<polygon fill="blue" stroke="blue" stroke-width="2" points="1131.25,-98.5833 1141.25,-95.0833 1131.25,-91.5833 1131.25,-98.5833"/>
<polygon fill="blue" stroke="blue" stroke-width="2" points="1039.06,-91.5833 1029.06,-95.0833 1039.06,-98.5833 1039.06,-91.5833"/>
<text text-anchor="middle" x="1068.56" y="-98.8833" font-family="Times,serif" font-size="14.00"> &#160;&#160;&#160;et&#45;0/0/49 &#160;&#160;&#160;</text>
<text text-anchor="middle" x="1105.25" y="-83.8833" font-family="Times,serif" font-size="14.00"> &#160;&#160;&#160;et&#45;0/0/0 &#160;&#160;&#160;</text>
</g>
<!-- cdbu&#45;sol&#45;vcf&#45;5100&#45;24q&#45;01&#45;&gt;cdbu&#45;sol&#45;vcf&#45;5100&#45;24q&#45;02 -->
<g id="edge14" class="edge"><title>cdbu&#45;sol&#45;vcf&#45;5100&#45;24q&#45;01&#45;&gt;cdbu&#45;sol&#45;vcf&#45;5100&#45;24q&#45;02</title>
<path fill="none" stroke="blue" stroke-width="2" d="M733,-252.852C733,-252.852 733,-222.917 733,-222.917 733,-222.917 854.874,-222.917 854.874,-222.917"/>
<polygon fill="blue" stroke="blue" stroke-width="2" points="729.5,-252.852 733,-262.852 736.5,-252.852 729.5,-252.852"/>
<polygon fill="blue" stroke="blue" stroke-width="2" points="854.874,-226.417 864.874,-222.917 854.874,-219.417 854.874,-226.417"/>
<text text-anchor="middle" x="825.374" y="-226.717" font-family="Times,serif" font-size="14.00"> &#160;&#160;&#160;et&#45;0/0/15 &#160;&#160;&#160;</text>
<text text-anchor="middle" x="693.5" y="-251.652" font-family="Times,serif" font-size="14.00"> &#160;&#160;&#160;et&#45;0/0/15 &#160;&#160;&#160;</text>
</g>
<!-- cdbu&#45;sol&#45;vcf&#45;5100&#45;24q&#45;01&#45;&gt;cdbu&#45;sol&#45;vcf&#45;5100&#45;48s&#45;04 -->
<g id="edge15" class="edge"><title>cdbu&#45;sol&#45;vcf&#45;5100&#45;24q&#45;01&#45;&gt;cdbu&#45;sol&#45;vcf&#45;5100&#45;48s&#45;04</title>
<path fill="none" stroke="blue" stroke-width="2" d="M763.044,-298.458C763.044,-298.458 1223,-298.458 1223,-298.458 1223,-298.458 1223,-236.74 1223,-236.74"/>
<polygon fill="blue" stroke="blue" stroke-width="2" points="763.044,-294.958 753.044,-298.458 763.044,-301.958 763.044,-294.958"/>
<polygon fill="blue" stroke="blue" stroke-width="2" points="1226.5,-236.74 1223,-226.74 1219.5,-236.74 1226.5,-236.74"/>
<text text-anchor="middle" x="1183.5" y="-230.54" font-family="Times,serif" font-size="14.00"> &#160;&#160;&#160;et&#45;0/0/48 &#160;&#160;&#160;</text>
<text text-anchor="middle" x="789.044" y="-287.258" font-family="Times,serif" font-size="14.00"> &#160;&#160;&#160;et&#45;0/0/3 &#160;&#160;&#160;</text>
</g>
<!-- cdbu&#45;sol&#45;vcf&#45;5100&#45;24q&#45;01&#45;&gt;cdbu&#45;sol&#45;vcf&#45;5100&#45;48s&#45;02 -->
<g id="edge16" class="edge"><title>cdbu&#45;sol&#45;vcf&#45;5100&#45;24q&#45;01&#45;&gt;cdbu&#45;sol&#45;vcf&#45;5100&#45;48s&#45;02</title>
<path fill="none" stroke="blue" stroke-width="2" d="M763.044,-358.667C763.044,-358.667 1131.41,-358.667 1131.41,-358.667"/>
<polygon fill="blue" stroke="blue" stroke-width="2" points="1131.41,-362.167 1141.41,-358.667 1131.41,-355.167 1131.41,-362.167"/>
<polygon fill="blue" stroke="blue" stroke-width="2" points="763.044,-355.167 753.044,-358.667 763.044,-362.167 763.044,-355.167"/>
<text text-anchor="middle" x="792.544" y="-347.467" font-family="Times,serif" font-size="14.00"> &#160;&#160;&#160;et&#45;0/0/48 &#160;&#160;&#160;</text>
<text text-anchor="middle" x="1105.41" y="-362.467" font-family="Times,serif" font-size="14.00"> &#160;&#160;&#160;et&#45;0/0/1 &#160;&#160;&#160;</text>
</g>
</g>
</svg>
